<mxfile host="app.diagrams.net" modified="2023-04-14T16:45:42.797Z" agent="Mozilla/5.0 (Windows NT 10.0; Win64; x64) AppleWebKit/537.36 (KHTML, like Gecko) Chrome/111.0.0.0 Safari/537.36" etag="Gv-pZeHMGRzOYI4UGp-a" version="21.1.7" type="device">
  <diagram name="Страница 1" id="bl-2aryYGYvUtYnReDVg">
    <mxGraphModel dx="1509" dy="838" grid="1" gridSize="10" guides="1" tooltips="1" connect="1" arrows="1" fold="1" page="1" pageScale="1" pageWidth="827" pageHeight="1169" math="0" shadow="0">
      <root>
        <mxCell id="0" />
        <mxCell id="1" parent="0" />
        <mxCell id="3ia1W4l3m8Bt_0uDPrpB-110" value="" style="rounded=0;whiteSpace=wrap;html=1;" vertex="1" parent="1">
          <mxGeometry x="840" y="680" width="960" height="680" as="geometry" />
        </mxCell>
        <mxCell id="3ia1W4l3m8Bt_0uDPrpB-109" value="" style="rounded=0;whiteSpace=wrap;html=1;fillStyle=hatch;fillColor=#a20025;strokeColor=#6F0000;fontColor=#ffffff;opacity=40;perimeterSpacing=0;" vertex="1" parent="1">
          <mxGeometry x="1060" y="1200" width="700" height="120" as="geometry" />
        </mxCell>
        <mxCell id="3ia1W4l3m8Bt_0uDPrpB-108" value="" style="rounded=0;whiteSpace=wrap;html=1;fillColor=#e3c800;strokeColor=none;fillStyle=hatch;fontColor=#000000;opacity=40;" vertex="1" parent="1">
          <mxGeometry x="1060" y="1080" width="700" height="120" as="geometry" />
        </mxCell>
        <mxCell id="3ia1W4l3m8Bt_0uDPrpB-107" value="" style="rounded=0;whiteSpace=wrap;html=1;fillColor=#008a00;strokeColor=none;fillStyle=hatch;fontColor=#ffffff;opacity=40;" vertex="1" parent="1">
          <mxGeometry x="1060" y="960" width="700" height="120" as="geometry" />
        </mxCell>
        <mxCell id="3ia1W4l3m8Bt_0uDPrpB-105" value="" style="rounded=0;whiteSpace=wrap;html=1;fillColor=#6a00ff;strokeColor=none;fillStyle=hatch;fontColor=#ffffff;strokeWidth=1;opacity=40;" vertex="1" parent="1">
          <mxGeometry x="1060" y="718.89" width="700" height="241.11" as="geometry" />
        </mxCell>
        <mxCell id="3ia1W4l3m8Bt_0uDPrpB-1" value="Android" style="rounded=0;whiteSpace=wrap;html=1;" vertex="1" parent="1">
          <mxGeometry x="360" y="200" width="120" height="40" as="geometry" />
        </mxCell>
        <mxCell id="3ia1W4l3m8Bt_0uDPrpB-2" value="iOS" style="rounded=0;whiteSpace=wrap;html=1;" vertex="1" parent="1">
          <mxGeometry x="360" y="280" width="120" height="40" as="geometry" />
        </mxCell>
        <mxCell id="3ia1W4l3m8Bt_0uDPrpB-3" value="Web" style="rounded=0;whiteSpace=wrap;html=1;" vertex="1" parent="1">
          <mxGeometry x="360" y="360" width="120" height="40" as="geometry" />
        </mxCell>
        <mxCell id="3ia1W4l3m8Bt_0uDPrpB-6" value="Frontend" style="shape=umlFrame;whiteSpace=wrap;html=1;pointerEvents=0;recursiveResize=0;container=1;collapsible=0;width=160;" vertex="1" parent="1">
          <mxGeometry x="320" y="120" width="200" height="320" as="geometry" />
        </mxCell>
        <mxCell id="3ia1W4l3m8Bt_0uDPrpB-7" value="Backend" style="shape=umlFrame;whiteSpace=wrap;html=1;pointerEvents=0;recursiveResize=0;container=1;collapsible=0;width=160;" vertex="1" parent="1">
          <mxGeometry x="590" y="100" width="640" height="310" as="geometry" />
        </mxCell>
        <mxCell id="3ia1W4l3m8Bt_0uDPrpB-4" value="Database" style="rounded=0;whiteSpace=wrap;html=1;" vertex="1" parent="3ia1W4l3m8Bt_0uDPrpB-7">
          <mxGeometry x="200" y="240" width="120" height="40" as="geometry" />
        </mxCell>
        <mxCell id="3ia1W4l3m8Bt_0uDPrpB-8" value="API" style="rounded=0;whiteSpace=wrap;html=1;" vertex="1" parent="3ia1W4l3m8Bt_0uDPrpB-7">
          <mxGeometry x="200" y="120" width="120" height="40" as="geometry" />
        </mxCell>
        <mxCell id="3ia1W4l3m8Bt_0uDPrpB-10" value="Users" style="html=1;whiteSpace=wrap;rounded=0;" vertex="1" parent="1">
          <mxGeometry x="521" y="930" width="120" height="40" as="geometry" />
        </mxCell>
        <mxCell id="3ia1W4l3m8Bt_0uDPrpB-15" value="Paints" style="html=1;whiteSpace=wrap;rounded=0;" vertex="1" parent="1">
          <mxGeometry x="630" y="1040" width="120" height="40" as="geometry" />
        </mxCell>
        <mxCell id="3ia1W4l3m8Bt_0uDPrpB-16" value="Orders" style="html=1;whiteSpace=wrap;rounded=0;" vertex="1" parent="1">
          <mxGeometry x="521" y="1170" width="120" height="40" as="geometry" />
        </mxCell>
        <mxCell id="3ia1W4l3m8Bt_0uDPrpB-17" value="Objects" style="html=1;whiteSpace=wrap;rounded=0;" vertex="1" parent="1">
          <mxGeometry x="320" y="1170" width="120" height="40" as="geometry" />
        </mxCell>
        <mxCell id="3ia1W4l3m8Bt_0uDPrpB-18" value="Geolocation" style="html=1;whiteSpace=wrap;rounded=0;" vertex="1" parent="1">
          <mxGeometry x="320" y="930" width="120" height="40" as="geometry" />
        </mxCell>
        <mxCell id="3ia1W4l3m8Bt_0uDPrpB-20" value="Хранит" style="html=1;verticalAlign=bottom;labelBackgroundColor=none;endArrow=open;endFill=0;rounded=0;exitX=1;exitY=0.5;exitDx=0;exitDy=0;entryX=0;entryY=0.5;entryDx=0;entryDy=0;" edge="1" parent="1" source="3ia1W4l3m8Bt_0uDPrpB-17" target="3ia1W4l3m8Bt_0uDPrpB-16">
          <mxGeometry y="10" width="160" relative="1" as="geometry">
            <mxPoint x="410" y="1010" as="sourcePoint" />
            <mxPoint x="570" y="1010" as="targetPoint" />
            <mxPoint as="offset" />
          </mxGeometry>
        </mxCell>
        <mxCell id="3ia1W4l3m8Bt_0uDPrpB-22" value="Использует" style="html=1;verticalAlign=bottom;labelBackgroundColor=none;endArrow=open;endFill=0;rounded=0;exitX=1;exitY=0.5;exitDx=0;exitDy=0;entryX=0.5;entryY=1;entryDx=0;entryDy=0;" edge="1" parent="1" source="3ia1W4l3m8Bt_0uDPrpB-16" target="3ia1W4l3m8Bt_0uDPrpB-15">
          <mxGeometry width="160" relative="1" as="geometry">
            <mxPoint x="470" y="1059.05" as="sourcePoint" />
            <mxPoint x="630" y="1059.05" as="targetPoint" />
            <mxPoint as="offset" />
          </mxGeometry>
        </mxCell>
        <mxCell id="3ia1W4l3m8Bt_0uDPrpB-23" value="Управляет" style="html=1;verticalAlign=bottom;labelBackgroundColor=none;endArrow=open;endFill=0;rounded=0;exitX=0.5;exitY=1;exitDx=0;exitDy=0;entryX=0.5;entryY=0;entryDx=0;entryDy=0;" edge="1" parent="1" source="3ia1W4l3m8Bt_0uDPrpB-10" target="3ia1W4l3m8Bt_0uDPrpB-16">
          <mxGeometry y="10" width="160" relative="1" as="geometry">
            <mxPoint x="510" y="1020" as="sourcePoint" />
            <mxPoint x="670" y="1020" as="targetPoint" />
            <mxPoint as="offset" />
          </mxGeometry>
        </mxCell>
        <mxCell id="3ia1W4l3m8Bt_0uDPrpB-24" value="Хранит" style="html=1;verticalAlign=bottom;labelBackgroundColor=none;endArrow=open;endFill=0;rounded=0;exitX=0.5;exitY=0;exitDx=0;exitDy=0;entryX=0.5;entryY=1;entryDx=0;entryDy=0;" edge="1" parent="1" source="3ia1W4l3m8Bt_0uDPrpB-17" target="3ia1W4l3m8Bt_0uDPrpB-18">
          <mxGeometry y="10" width="160" relative="1" as="geometry">
            <mxPoint x="260" y="970" as="sourcePoint" />
            <mxPoint x="340" y="970" as="targetPoint" />
            <mxPoint as="offset" />
          </mxGeometry>
        </mxCell>
        <mxCell id="3ia1W4l3m8Bt_0uDPrpB-25" value="Управляет" style="html=1;verticalAlign=bottom;labelBackgroundColor=none;endArrow=open;endFill=0;rounded=0;exitX=1;exitY=0.5;exitDx=0;exitDy=0;entryX=0.5;entryY=0;entryDx=0;entryDy=0;" edge="1" parent="1" source="3ia1W4l3m8Bt_0uDPrpB-10" target="3ia1W4l3m8Bt_0uDPrpB-15">
          <mxGeometry y="10" width="160" relative="1" as="geometry">
            <mxPoint x="591" y="980" as="sourcePoint" />
            <mxPoint x="390" y="1060" as="targetPoint" />
            <mxPoint as="offset" />
          </mxGeometry>
        </mxCell>
        <mxCell id="3ia1W4l3m8Bt_0uDPrpB-26" value="Отправляет" style="html=1;verticalAlign=bottom;labelBackgroundColor=none;endArrow=open;endFill=0;rounded=0;exitX=0;exitY=0.5;exitDx=0;exitDy=0;entryX=1;entryY=0.5;entryDx=0;entryDy=0;" edge="1" parent="1" source="3ia1W4l3m8Bt_0uDPrpB-10" target="3ia1W4l3m8Bt_0uDPrpB-18">
          <mxGeometry x="0.0123" y="-10" width="160" relative="1" as="geometry">
            <mxPoint x="390" y="1180" as="sourcePoint" />
            <mxPoint x="390" y="980" as="targetPoint" />
            <mxPoint as="offset" />
          </mxGeometry>
        </mxCell>
        <mxCell id="3ia1W4l3m8Bt_0uDPrpB-32" style="edgeStyle=orthogonalEdgeStyle;rounded=0;orthogonalLoop=1;jettySize=auto;html=1;exitX=1;exitY=0.5;exitDx=0;exitDy=0;entryX=0;entryY=0.5;entryDx=0;entryDy=0;" edge="1" parent="1" source="3ia1W4l3m8Bt_0uDPrpB-27" target="3ia1W4l3m8Bt_0uDPrpB-31">
          <mxGeometry relative="1" as="geometry" />
        </mxCell>
        <mxCell id="3ia1W4l3m8Bt_0uDPrpB-48" style="edgeStyle=orthogonalEdgeStyle;rounded=0;orthogonalLoop=1;jettySize=auto;html=1;exitX=0.5;exitY=1;exitDx=0;exitDy=0;entryX=0;entryY=0.5;entryDx=0;entryDy=0;" edge="1" parent="1" source="3ia1W4l3m8Bt_0uDPrpB-27" target="3ia1W4l3m8Bt_0uDPrpB-47">
          <mxGeometry relative="1" as="geometry" />
        </mxCell>
        <mxCell id="3ia1W4l3m8Bt_0uDPrpB-27" value="UserInteraction" style="html=1;whiteSpace=wrap;rounded=0;" vertex="1" parent="1">
          <mxGeometry x="880" y="758.89" width="120" height="40" as="geometry" />
        </mxCell>
        <mxCell id="3ia1W4l3m8Bt_0uDPrpB-97" style="edgeStyle=orthogonalEdgeStyle;rounded=0;orthogonalLoop=1;jettySize=auto;html=1;exitX=1;exitY=0.5;exitDx=0;exitDy=0;entryX=0;entryY=0.5;entryDx=0;entryDy=0;" edge="1" parent="1" source="3ia1W4l3m8Bt_0uDPrpB-28" target="3ia1W4l3m8Bt_0uDPrpB-96">
          <mxGeometry relative="1" as="geometry" />
        </mxCell>
        <mxCell id="3ia1W4l3m8Bt_0uDPrpB-28" value="OrderInteraction" style="html=1;whiteSpace=wrap;rounded=0;" vertex="1" parent="1">
          <mxGeometry x="880" y="1120" width="120" height="40" as="geometry" />
        </mxCell>
        <mxCell id="3ia1W4l3m8Bt_0uDPrpB-37" style="edgeStyle=orthogonalEdgeStyle;rounded=0;orthogonalLoop=1;jettySize=auto;html=1;exitX=1;exitY=0.5;exitDx=0;exitDy=0;entryX=0;entryY=0.5;entryDx=0;entryDy=0;" edge="1" parent="1" source="3ia1W4l3m8Bt_0uDPrpB-29" target="3ia1W4l3m8Bt_0uDPrpB-36">
          <mxGeometry relative="1" as="geometry" />
        </mxCell>
        <mxCell id="3ia1W4l3m8Bt_0uDPrpB-29" value="StockInteraction" style="html=1;whiteSpace=wrap;rounded=0;" vertex="1" parent="1">
          <mxGeometry x="880" y="1240" width="120" height="40" as="geometry" />
        </mxCell>
        <mxCell id="3ia1W4l3m8Bt_0uDPrpB-58" style="edgeStyle=orthogonalEdgeStyle;rounded=0;orthogonalLoop=1;jettySize=auto;html=1;exitX=1;exitY=0.5;exitDx=0;exitDy=0;entryX=0;entryY=0.5;entryDx=0;entryDy=0;" edge="1" parent="1" source="3ia1W4l3m8Bt_0uDPrpB-30" target="3ia1W4l3m8Bt_0uDPrpB-57">
          <mxGeometry relative="1" as="geometry" />
        </mxCell>
        <mxCell id="3ia1W4l3m8Bt_0uDPrpB-30" value="ObjectInteraction" style="html=1;whiteSpace=wrap;rounded=0;" vertex="1" parent="1">
          <mxGeometry x="880" y="998.89" width="120" height="40" as="geometry" />
        </mxCell>
        <mxCell id="3ia1W4l3m8Bt_0uDPrpB-80" style="edgeStyle=orthogonalEdgeStyle;rounded=0;orthogonalLoop=1;jettySize=auto;html=1;exitX=1;exitY=0.5;exitDx=0;exitDy=0;entryX=0;entryY=0.5;entryDx=0;entryDy=0;" edge="1" parent="1" source="3ia1W4l3m8Bt_0uDPrpB-31" target="3ia1W4l3m8Bt_0uDPrpB-79">
          <mxGeometry relative="1" as="geometry" />
        </mxCell>
        <mxCell id="3ia1W4l3m8Bt_0uDPrpB-31" value="«API»&lt;br&gt;&lt;b&gt;Login&lt;/b&gt;" style="html=1;whiteSpace=wrap;" vertex="1" parent="1">
          <mxGeometry x="1120" y="758.89" width="120" height="40" as="geometry" />
        </mxCell>
        <mxCell id="3ia1W4l3m8Bt_0uDPrpB-75" style="edgeStyle=orthogonalEdgeStyle;rounded=0;orthogonalLoop=1;jettySize=auto;html=1;exitX=1;exitY=0.5;exitDx=0;exitDy=0;entryX=0;entryY=0.5;entryDx=0;entryDy=0;" edge="1" parent="1" source="3ia1W4l3m8Bt_0uDPrpB-36" target="3ia1W4l3m8Bt_0uDPrpB-74">
          <mxGeometry relative="1" as="geometry" />
        </mxCell>
        <mxCell id="3ia1W4l3m8Bt_0uDPrpB-36" value="«API»&lt;br&gt;&lt;b&gt;Stock&lt;/b&gt;" style="html=1;whiteSpace=wrap;" vertex="1" parent="1">
          <mxGeometry x="1121" y="1240" width="120" height="40" as="geometry" />
        </mxCell>
        <mxCell id="3ia1W4l3m8Bt_0uDPrpB-85" style="edgeStyle=orthogonalEdgeStyle;rounded=0;orthogonalLoop=1;jettySize=auto;html=1;exitX=0.5;exitY=0;exitDx=0;exitDy=0;entryX=0.5;entryY=1;entryDx=0;entryDy=0;" edge="1" parent="1" source="3ia1W4l3m8Bt_0uDPrpB-45" target="3ia1W4l3m8Bt_0uDPrpB-79">
          <mxGeometry relative="1" as="geometry" />
        </mxCell>
        <mxCell id="3ia1W4l3m8Bt_0uDPrpB-45" value="«logic»&lt;br&gt;&lt;b&gt;Geolocation&lt;/b&gt;" style="html=1;whiteSpace=wrap;" vertex="1" parent="1">
          <mxGeometry x="1359" y="878.85" width="120" height="40" as="geometry" />
        </mxCell>
        <mxCell id="3ia1W4l3m8Bt_0uDPrpB-50" style="edgeStyle=orthogonalEdgeStyle;rounded=0;orthogonalLoop=1;jettySize=auto;html=1;exitX=1;exitY=0.5;exitDx=0;exitDy=0;entryX=0;entryY=0.5;entryDx=0;entryDy=0;" edge="1" parent="1" source="3ia1W4l3m8Bt_0uDPrpB-47" target="3ia1W4l3m8Bt_0uDPrpB-45">
          <mxGeometry relative="1" as="geometry" />
        </mxCell>
        <mxCell id="3ia1W4l3m8Bt_0uDPrpB-47" value="«API»&lt;br&gt;&lt;b&gt;Geolocation&lt;/b&gt;" style="html=1;whiteSpace=wrap;" vertex="1" parent="1">
          <mxGeometry x="1119" y="878.85" width="120" height="40" as="geometry" />
        </mxCell>
        <mxCell id="3ia1W4l3m8Bt_0uDPrpB-68" style="edgeStyle=orthogonalEdgeStyle;rounded=0;orthogonalLoop=1;jettySize=auto;html=1;exitX=1;exitY=0.5;exitDx=0;exitDy=0;entryX=0;entryY=0.5;entryDx=0;entryDy=0;" edge="1" parent="1" source="3ia1W4l3m8Bt_0uDPrpB-51" target="3ia1W4l3m8Bt_0uDPrpB-67">
          <mxGeometry relative="1" as="geometry" />
        </mxCell>
        <mxCell id="3ia1W4l3m8Bt_0uDPrpB-51" value="«logic»&lt;br&gt;&lt;b&gt;Order&lt;/b&gt;" style="html=1;whiteSpace=wrap;" vertex="1" parent="1">
          <mxGeometry x="1360" y="1120" width="120" height="40" as="geometry" />
        </mxCell>
        <mxCell id="3ia1W4l3m8Bt_0uDPrpB-60" style="edgeStyle=orthogonalEdgeStyle;rounded=0;orthogonalLoop=1;jettySize=auto;html=1;exitX=1;exitY=0.5;exitDx=0;exitDy=0;entryX=0;entryY=0.5;entryDx=0;entryDy=0;" edge="1" parent="1" source="3ia1W4l3m8Bt_0uDPrpB-57" target="3ia1W4l3m8Bt_0uDPrpB-59">
          <mxGeometry relative="1" as="geometry" />
        </mxCell>
        <mxCell id="3ia1W4l3m8Bt_0uDPrpB-57" value="«API»&lt;br&gt;&lt;b&gt;Object&lt;/b&gt;" style="html=1;whiteSpace=wrap;" vertex="1" parent="1">
          <mxGeometry x="1119" y="998.89" width="120" height="40" as="geometry" />
        </mxCell>
        <mxCell id="3ia1W4l3m8Bt_0uDPrpB-63" style="edgeStyle=orthogonalEdgeStyle;rounded=0;orthogonalLoop=1;jettySize=auto;html=1;exitX=1;exitY=0.5;exitDx=0;exitDy=0;entryX=0;entryY=0.5;entryDx=0;entryDy=0;" edge="1" parent="1" source="3ia1W4l3m8Bt_0uDPrpB-59" target="3ia1W4l3m8Bt_0uDPrpB-62">
          <mxGeometry relative="1" as="geometry" />
        </mxCell>
        <mxCell id="3ia1W4l3m8Bt_0uDPrpB-70" style="edgeStyle=orthogonalEdgeStyle;rounded=0;orthogonalLoop=1;jettySize=auto;html=1;exitX=0.5;exitY=1;exitDx=0;exitDy=0;entryX=0.5;entryY=0;entryDx=0;entryDy=0;" edge="1" parent="1" source="3ia1W4l3m8Bt_0uDPrpB-51" target="3ia1W4l3m8Bt_0uDPrpB-74">
          <mxGeometry relative="1" as="geometry">
            <mxPoint x="1510" y="1470" as="targetPoint" />
          </mxGeometry>
        </mxCell>
        <mxCell id="3ia1W4l3m8Bt_0uDPrpB-73" style="edgeStyle=orthogonalEdgeStyle;rounded=0;orthogonalLoop=1;jettySize=auto;html=1;exitX=0.5;exitY=0;exitDx=0;exitDy=0;entryX=0.5;entryY=1;entryDx=0;entryDy=0;" edge="1" parent="1" source="3ia1W4l3m8Bt_0uDPrpB-59" target="3ia1W4l3m8Bt_0uDPrpB-45">
          <mxGeometry relative="1" as="geometry" />
        </mxCell>
        <mxCell id="3ia1W4l3m8Bt_0uDPrpB-84" style="edgeStyle=orthogonalEdgeStyle;rounded=0;orthogonalLoop=1;jettySize=auto;html=1;exitX=0.5;exitY=1;exitDx=0;exitDy=0;entryX=0.5;entryY=0;entryDx=0;entryDy=0;" edge="1" parent="1" source="3ia1W4l3m8Bt_0uDPrpB-59" target="3ia1W4l3m8Bt_0uDPrpB-51">
          <mxGeometry relative="1" as="geometry" />
        </mxCell>
        <mxCell id="3ia1W4l3m8Bt_0uDPrpB-59" value="«logic»&lt;br&gt;&lt;b&gt;Object&lt;/b&gt;" style="html=1;whiteSpace=wrap;" vertex="1" parent="1">
          <mxGeometry x="1360" y="998.89" width="120" height="40" as="geometry" />
        </mxCell>
        <mxCell id="3ia1W4l3m8Bt_0uDPrpB-62" value="«Repository»&lt;br&gt;&lt;b&gt;Object&lt;/b&gt;" style="html=1;whiteSpace=wrap;" vertex="1" parent="1">
          <mxGeometry x="1600" y="998.89" width="120" height="40" as="geometry" />
        </mxCell>
        <mxCell id="3ia1W4l3m8Bt_0uDPrpB-67" value="«Repository»&lt;br&gt;&lt;b&gt;Order&lt;/b&gt;" style="html=1;whiteSpace=wrap;" vertex="1" parent="1">
          <mxGeometry x="1600" y="1120" width="120" height="40" as="geometry" />
        </mxCell>
        <mxCell id="3ia1W4l3m8Bt_0uDPrpB-69" value="«Repository»&lt;br&gt;&lt;b&gt;Stock&lt;/b&gt;" style="html=1;whiteSpace=wrap;" vertex="1" parent="1">
          <mxGeometry x="1600" y="1240" width="120" height="40" as="geometry" />
        </mxCell>
        <mxCell id="3ia1W4l3m8Bt_0uDPrpB-76" style="edgeStyle=orthogonalEdgeStyle;rounded=0;orthogonalLoop=1;jettySize=auto;html=1;exitX=1;exitY=0.5;exitDx=0;exitDy=0;entryX=0;entryY=0.5;entryDx=0;entryDy=0;" edge="1" parent="1" source="3ia1W4l3m8Bt_0uDPrpB-74" target="3ia1W4l3m8Bt_0uDPrpB-69">
          <mxGeometry relative="1" as="geometry" />
        </mxCell>
        <mxCell id="3ia1W4l3m8Bt_0uDPrpB-74" value="«logic»&lt;br&gt;&lt;b&gt;Stock&lt;/b&gt;" style="html=1;whiteSpace=wrap;" vertex="1" parent="1">
          <mxGeometry x="1360" y="1240" width="120" height="40" as="geometry" />
        </mxCell>
        <mxCell id="3ia1W4l3m8Bt_0uDPrpB-82" style="edgeStyle=orthogonalEdgeStyle;rounded=0;orthogonalLoop=1;jettySize=auto;html=1;exitX=1;exitY=0.5;exitDx=0;exitDy=0;entryX=0;entryY=0.5;entryDx=0;entryDy=0;" edge="1" parent="1" source="3ia1W4l3m8Bt_0uDPrpB-79" target="3ia1W4l3m8Bt_0uDPrpB-81">
          <mxGeometry relative="1" as="geometry" />
        </mxCell>
        <mxCell id="3ia1W4l3m8Bt_0uDPrpB-79" value="«logic»&lt;br&gt;&lt;b&gt;User&lt;/b&gt;" style="html=1;whiteSpace=wrap;" vertex="1" parent="1">
          <mxGeometry x="1360" y="758.89" width="120" height="40" as="geometry" />
        </mxCell>
        <mxCell id="3ia1W4l3m8Bt_0uDPrpB-81" value="«Repository»&lt;br&gt;&lt;b&gt;User&lt;/b&gt;" style="html=1;whiteSpace=wrap;" vertex="1" parent="1">
          <mxGeometry x="1600" y="758.89" width="120" height="40" as="geometry" />
        </mxCell>
        <mxCell id="3ia1W4l3m8Bt_0uDPrpB-88" value="" style="endArrow=none;dashed=1;html=1;rounded=0;" edge="1" parent="1">
          <mxGeometry width="50" height="50" relative="1" as="geometry">
            <mxPoint x="1059" y="838.89" as="sourcePoint" />
            <mxPoint x="1759" y="838.89" as="targetPoint" />
          </mxGeometry>
        </mxCell>
        <mxCell id="3ia1W4l3m8Bt_0uDPrpB-89" value="" style="endArrow=none;dashed=1;html=1;rounded=0;" edge="1" parent="1">
          <mxGeometry width="50" height="50" relative="1" as="geometry">
            <mxPoint x="1540" y="1318" as="sourcePoint" />
            <mxPoint x="1540" y="718" as="targetPoint" />
          </mxGeometry>
        </mxCell>
        <mxCell id="3ia1W4l3m8Bt_0uDPrpB-90" value="" style="endArrow=none;dashed=1;html=1;rounded=0;" edge="1" parent="1">
          <mxGeometry width="50" height="50" relative="1" as="geometry">
            <mxPoint x="1059" y="958.89" as="sourcePoint" />
            <mxPoint x="1759" y="958.89" as="targetPoint" />
          </mxGeometry>
        </mxCell>
        <mxCell id="3ia1W4l3m8Bt_0uDPrpB-94" value="" style="endArrow=none;dashed=1;html=1;rounded=0;" edge="1" parent="1">
          <mxGeometry width="50" height="50" relative="1" as="geometry">
            <mxPoint x="1059" y="1078.89" as="sourcePoint" />
            <mxPoint x="1759" y="1078.89" as="targetPoint" />
          </mxGeometry>
        </mxCell>
        <mxCell id="3ia1W4l3m8Bt_0uDPrpB-95" value="" style="endArrow=none;dashed=1;html=1;rounded=0;" edge="1" parent="1">
          <mxGeometry width="50" height="50" relative="1" as="geometry">
            <mxPoint x="1060" y="1200" as="sourcePoint" />
            <mxPoint x="1760" y="1200" as="targetPoint" />
          </mxGeometry>
        </mxCell>
        <mxCell id="3ia1W4l3m8Bt_0uDPrpB-99" style="edgeStyle=orthogonalEdgeStyle;rounded=0;orthogonalLoop=1;jettySize=auto;html=1;exitX=1;exitY=0.5;exitDx=0;exitDy=0;entryX=0;entryY=0.5;entryDx=0;entryDy=0;" edge="1" parent="1" source="3ia1W4l3m8Bt_0uDPrpB-96" target="3ia1W4l3m8Bt_0uDPrpB-51">
          <mxGeometry relative="1" as="geometry" />
        </mxCell>
        <mxCell id="3ia1W4l3m8Bt_0uDPrpB-96" value="«API»&lt;br&gt;&lt;b&gt;Order&lt;/b&gt;" style="html=1;whiteSpace=wrap;" vertex="1" parent="1">
          <mxGeometry x="1119" y="1120" width="120" height="40" as="geometry" />
        </mxCell>
        <mxCell id="3ia1W4l3m8Bt_0uDPrpB-101" value="" style="endArrow=none;dashed=1;html=1;rounded=0;" edge="1" parent="1">
          <mxGeometry width="50" height="50" relative="1" as="geometry">
            <mxPoint x="1300" y="1318.89" as="sourcePoint" />
            <mxPoint x="1300" y="718.89" as="targetPoint" />
          </mxGeometry>
        </mxCell>
        <mxCell id="3ia1W4l3m8Bt_0uDPrpB-104" value="" style="endArrow=none;dashed=1;html=1;rounded=0;strokeWidth=3;" edge="1" parent="1">
          <mxGeometry width="50" height="50" relative="1" as="geometry">
            <mxPoint x="1060" y="1318.89" as="sourcePoint" />
            <mxPoint x="1060" y="718.89" as="targetPoint" />
          </mxGeometry>
        </mxCell>
      </root>
    </mxGraphModel>
  </diagram>
</mxfile>
